<svg width="514" height="734" viewBox="0 0 514 734" fill="none" xmlns="http://www.w3.org/2000/svg">
<rect width="514" height="734" rx="40" fill="url(#paint0_radial_901_11)"/>
<path d="M344.439 508.468C351.817 517.343 361.449 515.516 369.77 508.468C378.092 501.42 392.793 482.476 385.415 473.6L317.956 389.54L248.164 302.571C241.299 294.016 225.686 298.177 213.619 306.096C210.207 313.52 206.288 317.161 204.631 327.377L344.439 508.468Z" fill="white"/>
<path d="M304.818 240.421C304.818 240.421 257.943 211.876 213.52 248.824L151.328 300.55C151.328 300.55 143.873 291.744 134.988 299.133L126.103 306.523C126.103 306.523 117.219 313.912 124.674 322.719L154.494 357.944C154.494 357.944 161.949 366.751 170.834 359.361L179.719 351.972C179.719 351.972 188.603 344.582 181.148 335.776L180.567 335.089C187.388 329.618 197.349 324.304 206.372 329.803L216.303 311.288C217.54 308.982 219.631 307.251 222.128 306.466L241.911 300.245C241.911 300.245 235.885 275.243 253.655 260.464C271.424 245.685 279.594 246.393 295.933 247.81C312.273 249.227 304.818 240.421 304.818 240.421Z" fill="white"/>
<defs>
<radialGradient id="paint0_radial_901_11" cx="0" cy="0" r="1" gradientUnits="userSpaceOnUse" gradientTransform="translate(456.817 77.0701) rotate(124.814) scale(800.149 750.121)">
<stop stop-color="#0569FF"/>
<stop offset="0.546875" stop-color="#9E00FF"/>
<stop offset="1" stop-color="#FFAC0B"/>
</radialGradient>
</defs>
</svg>
