<?xml version="1.0" standalone="no"?>
<!DOCTYPE svg PUBLIC "-//W3C//DTD SVG 20010904//EN"
 "http://www.w3.org/TR/2001/REC-SVG-20010904/DTD/svg10.dtd">
<svg version="1.0" xmlns="http://www.w3.org/2000/svg"
 width="400.000000pt" height="400.000000pt" viewBox="0 0 400.000000 400.000000"
 preserveAspectRatio="xMidYMid meet">
<metadata>
Created by potrace 1.14, written by Peter Selinger 2001-2017
</metadata>
<g transform="translate(0.000000,400.000000) scale(0.100000,-0.100000)"
fill="#000000" stroke="none">
<path d="M1828 3995 c-1 -1 -28 -5 -58 -8 -30 -4 -93 -14 -140 -23 -47 -9 -96
-18 -109 -21 -142 -26 -454 -164 -621 -274 -171 -112 -355 -279 -460 -418 -14
-18 -35 -45 -46 -59 -96 -120 -232 -381 -290 -556 -19 -59 -37 -116 -39 -125
-38 -177 -39 -184 -52 -286 -12 -94 -8 -411 6 -505 33 -212 84 -383 171 -565
126 -268 263 -449 504 -670 76 -69 271 -203 371 -253 138 -70 346 -152 418
-166 12 -2 45 -10 72 -16 147 -34 252 -45 445 -45 203 0 231 3 470 50 44 8
192 56 270 87 342 135 675 396 882 691 32 45 61 87 65 92 19 25 59 99 113 210
97 197 157 402 187 640 12 95 8 412 -6 505 -63 401 -233 767 -491 1054 -174
194 -386 352 -622 466 -110 52 -293 122 -351 134 -12 3 -65 14 -117 25 -52 11
-117 23 -145 26 -52 7 -421 16 -427 10z"/>
</g>
</svg>
